<?xml version="1.0" encoding="UTF-8"?>
<svg version="1.1" xmlns="http://www.w3.org/2000/svg" width="180" height="180">
<path d="M0 0 C59.4 0 118.8 0 180 0 C180 59.4 180 118.8 180 180 C120.6 180 61.2 180 0 180 C0 120.6 0 61.2 0 0 Z " fill="#0000AA" transform="translate(0,0)"/>
<path d="M0 0 C7.26 0 14.52 0 22 0 C22.0093457 2.15901855 22.01869141 4.31803711 22.02832031 6.54248047 C22.06221504 13.70713529 22.11783271 20.87150587 22.18390274 28.03593254 C22.22327063 32.37618307 22.25551112 36.71623397 22.27099609 41.05664062 C22.28623364 45.25200576 22.32080325 49.44682166 22.36830902 53.64194107 C22.38305012 55.23571094 22.39103681 56.82955925 22.39188385 58.42339706 C22.30374408 73.12379155 22.30374408 73.12379155 29.4375 85.5 C36.46852318 89.61572089 42.97719864 89.72522498 51 89 C55.73251399 87.7244679 58.30073811 85.86487654 61.375 82.0625 C64.23902541 76.66491366 65.25575799 72.81167641 65.31884766 66.6394043 C65.32889328 65.91690994 65.3389389 65.19441559 65.34928894 64.45002747 C65.38004662 62.07476558 65.39713516 59.69961604 65.4140625 57.32421875 C65.43278014 55.67225686 65.452354 54.02030447 65.4727478 52.36836243 C65.52401211 48.02999479 65.56366826 43.69159618 65.60089111 39.35308838 C65.64096657 34.92216362 65.69204274 30.49136709 65.7421875 26.06054688 C65.83887934 17.37377916 65.92228838 8.68695826 66 0 C73.26 0 80.52 0 88 0 C88.09069256 9.84956097 88.16394067 19.69884053 88.20724869 29.54872608 C88.22804377 34.12338194 88.256212 38.6977351 88.30175781 43.2722168 C88.3455061 47.69428635 88.36919773 52.11606638 88.37950897 56.5383358 C88.38684871 58.21789794 88.40118034 59.89744584 88.42292023 61.57688332 C88.59915614 75.76730645 86.49533992 86.93471344 77 98 C68.7239302 106.45741794 58.10771467 110.11266559 46.48852539 110.54052734 C34.87215691 110.63818948 23.12788728 108.89293783 14 101 C14 100.34 14 99.68 14 99 C13.01 98.67 12.02 98.34 11 98 C3.31550867 89.79520456 -0.34394751 79.37275052 -0.22705078 68.22875977 C-0.22734283 67.48646622 -0.22763489 66.74417267 -0.22793579 65.97938538 C-0.22655342 63.54993596 -0.21104439 61.12080143 -0.1953125 58.69140625 C-0.19157847 56.99747383 -0.18873334 55.30353924 -0.18673706 53.60960388 C-0.17913128 49.16921946 -0.15950928 44.7289676 -0.1373291 40.28863525 C-0.1168046 35.75038445 -0.10772126 31.21211205 -0.09765625 26.67382812 C-0.07626028 17.78248472 -0.04110329 8.89127417 0 0 Z " fill="#FAFAFD" transform="translate(46,35)"/>
<path d="M0 0 C0.33 0 0.66 0 1 0 C1 3.63 1 7.26 1 11 C-2.63 11 -6.26 11 -10 11 C-9.2575 10.443125 -8.515 9.88625 -7.75 9.3125 C-4.52326049 6.59910541 -1.89487672 3.78975344 0 0 Z " fill="#000000" transform="translate(179,169)"/>
<path d="M0 0 C0.556875 0.7425 1.11375 1.485 1.6875 2.25 C3.93727787 4.92541152 6.2309174 6.88675275 9 9 C9.66 9.66 10.32 10.32 11 11 C7.37 11 3.74 11 0 11 C0 7.37 0 3.74 0 0 Z " fill="#000000" transform="translate(0,169)"/>
<path d="M0 0 C3.63 0 7.26 0 11 0 C11 3.63 11 7.26 11 11 C10.443125 10.2575 9.88625 9.515 9.3125 8.75 C7.06272213 6.07458848 4.7690826 4.11324725 2 2 C1.34 1.34 0.68 0.68 0 0 Z " fill="#000000" transform="translate(169,0)"/>
<path d="M0 0 C3.63 0 7.26 0 11 0 C10.2575 0.556875 9.515 1.11375 8.75 1.6875 C6.07458848 3.93727787 4.11324725 6.2309174 2 9 C1.34 9.66 0.68 10.32 0 11 C0 7.37 0 3.74 0 0 Z " fill="#000000" transform="translate(0,0)"/>
</svg>
