<svg xmlns="http://www.w3.org/2000/svg" version="1.1" id="svg" x="0px" y="0px" width="231.56px" height="399.56px" viewBox="0 0 185.25 319.65" enable-background="new 0 0 185.25 319.65" xml:space="preserve"> <g id="BACKGROUND"> <g id="CALC"> <path id="color_23_" fill="#507ABD" d="M185.125,304.218c0,8.418-6.889,15.31-15.307,15.31H15.432 c-8.419,0-15.307-6.892-15.307-15.31V2.919c0-1.537,1.257-2.794,2.794-2.794h179.412c1.537,0,2.795,1.257,2.795,2.794 L185.125,304.218L185.125,304.218z"></path> <g id="g5089" opacity="0.61"> <path id="path5091" fill="none" stroke="#000000" stroke-miterlimit="10" d="M176.219,293.187c0,2.338-1.91,4.248-4.248,4.248 H13.342c-2.336,0-4.248-1.91-4.248-4.248V120.442c0-2.336,1.912-4.248,4.248-4.248h158.629c2.336,0,4.246,1.912,4.246,4.248 v172.745H176.219z"></path> </g> <g id="BRANDING"> <path id="CALC_MODEL" fill="#FFFFFF" d="M121.85,64.249v1.53l-0.002,0.008l-0.027,1.75h0.004c0,0.404,0.004,0.704,0.01,0.895 c0.006,0.218,0.02,0.395,0.033,0.524c0.012,0.1,0.025,0.175,0.045,0.231c0.006,0.02,0.004,0.023,0.006,0.025l0.014,0.019 c0.002,0.002,0.004,0.004,0.006,0.005c0.021,0.01,0.062,0.016,0.123,0.016c0.053,0,0.092-0.001,0.115-0.003 c0.037-0.003,0.09-0.011,0.152-0.021h0.004c0.116-0.02,0.221-0.033,0.312-0.042l0,0c0.113-0.015,0.211-0.021,0.283-0.021 c0.354,0,0.658,0.129,0.908,0.389c0.121,0.122,0.213,0.265,0.273,0.42c0.062,0.153,0.098,0.318,0.098,0.487 c0,0.199-0.041,0.388-0.127,0.562l0,0c-0.084,0.175-0.205,0.324-0.361,0.448c-0.141,0.111-0.303,0.197-0.48,0.255 c-0.162,0.051-0.338,0.078-0.521,0.078c-0.068,0-0.215-0.016-0.436-0.042c-0.115-0.016-0.396-0.054-0.801-0.108l0,0 c-0.127-0.017-0.277-0.03-0.455-0.039c-0.152-0.008-0.354-0.012-0.602-0.012c-0.242,0-0.521,0.014-0.832,0.042 c-0.312,0.027-0.697,0.076-1.158,0.141h-0.01c-0.062,0.009-0.123,0.015-0.176,0.021l0,0c-0.07,0.004-0.131,0.007-0.182,0.007 c-0.186,0-0.357-0.026-0.521-0.078c-0.174-0.054-0.334-0.14-0.479-0.255h-0.002c-0.157-0.125-0.277-0.275-0.359-0.448h-0.002 c-0.084-0.176-0.127-0.364-0.127-0.562c0-0.17,0.031-0.333,0.096-0.49v-0.002c0.062-0.153,0.154-0.293,0.273-0.417 c0.123-0.125,0.262-0.223,0.414-0.286c0.158-0.067,0.324-0.103,0.494-0.103c0.07,0,0.162,0.009,0.277,0.021h0.004 c0.076,0.008,0.182,0.021,0.312,0.043h0.007c0.062,0.01,0.116,0.018,0.155,0.021c0.022,0.002,0.063,0.003,0.123,0.003 c0.058,0,0.097-0.005,0.115-0.016c0.004-0.002,0.012-0.009,0.018-0.02c0.013-0.021,0.029-0.151,0.052-0.391 c0.026-0.298,0.041-0.73,0.041-1.299h0.002l-0.026-1.75l-0.002-0.008v-1.53l0.002-0.002l0.01-1.2h-0.002v-0.801 c0-0.343-0.004-0.581-0.008-0.716c-0.004-0.165-0.013-0.295-0.022-0.389c-0.009-0.071-0.021-0.134-0.031-0.183 c-0.01-0.035-0.021-0.066-0.037-0.099l0,0c-0.01-0.019-0.03-0.034-0.065-0.049c-0.103-0.042-0.25-0.063-0.448-0.063h-0.574 c-0.157,0-0.285,0.017-0.379,0.043l0,0c-0.054,0.019-0.091,0.036-0.112,0.06c-0.021,0.021-0.039,0.057-0.056,0.105 c-0.028,0.093-0.043,0.218-0.043,0.375c0,0.079,0.008,0.211,0.021,0.396c0.021,0.264,0.043,0.521,0.067,0.787v0.002 c0.008,0.077,0.015,0.162,0.019,0.248l0,0c0.004,0.125,0.006,0.217,0.006,0.279c0,0.242-0.019,0.461-0.053,0.655h-0.002 c-0.043,0.236-0.117,0.435-0.22,0.594l-0.004,0.005c-0.131,0.199-0.31,0.351-0.531,0.447h-0.002 c-0.188,0.082-0.396,0.124-0.627,0.124c-0.442,0-0.789-0.159-1.037-0.476v-0.003c-0.209-0.268-0.312-0.615-0.312-1.048 c0-0.075,0.007-0.198,0.017-0.365c0.007-0.102,0.021-0.274,0.043-0.513h-0.002c0.019-0.249,0.031-0.446,0.037-0.602 c0.006-0.144,0.01-0.294,0.01-0.455c0-0.309-0.012-0.589-0.038-0.84l0,0c-0.024-0.245-0.046-0.427-0.056-0.534 c-0.013-0.16-0.021-0.282-0.021-0.366c0-0.427,0.121-0.771,0.36-1.031c0.257-0.275,0.601-0.414,1.029-0.414 c0.221,0,0.618,0.016,1.207,0.048l0,0c0.528,0.021,1.082,0.04,1.655,0.051c0.488,0.009,1.104,0.015,1.854,0.015 c0.692,0,1.297-0.008,1.812-0.022c0.553-0.018,1.094-0.043,1.621-0.078h0.004c0.162-0.011,0.322-0.021,0.486-0.027 c0.174-0.007,0.291-0.012,0.35-0.012c0.209,0,0.398,0.021,0.566,0.062h-0.002c0.211,0.056,0.393,0.145,0.543,0.268 c0.168,0.138,0.289,0.312,0.367,0.523c0.062,0.174,0.094,0.364,0.094,0.572c0,0.087-0.004,0.209-0.014,0.363v0.002 c-0.006,0.104-0.02,0.247-0.033,0.427v0.005c-0.025,0.259-0.049,0.515-0.068,0.764c-0.016,0.18-0.021,0.31-0.021,0.39 c0,0.131,0.004,0.253,0.01,0.365l0,0c0.009,0.132,0.021,0.271,0.037,0.421v0.011c0.022,0.234,0.039,0.423,0.05,0.562 c0.012,0.184,0.02,0.328,0.02,0.435c0,0.97-0.469,1.456-1.401,1.456c-0.463,0-0.821-0.17-1.08-0.509 c-0.211-0.278-0.313-0.647-0.313-1.105c0-0.078,0.009-0.249,0.022-0.511h0.003c0.016-0.271,0.036-0.578,0.063-0.935V61.75 c0.01-0.134,0.018-0.224,0.021-0.278c0.004-0.056,0.004-0.131,0.004-0.228c0-0.127-0.015-0.229-0.041-0.302 c-0.015-0.039-0.029-0.066-0.05-0.082l-0.002-0.003c-0.028-0.025-0.084-0.049-0.161-0.069h0.002 c-0.119-0.031-0.273-0.047-0.466-0.047h-0.51v-0.002c-0.24,0.009-0.406,0.045-0.494,0.109c-0.026,0.019-0.043,0.06-0.047,0.123 h-0.002c-0.029,0.439-0.054,0.927-0.067,1.45c-0.019,0.555-0.029,1.16-0.035,1.819l0,0v0.005h-0.004V64.249z M129.986,65.797 v-1.548l0.005-0.008l0.024-1.749h-0.002c0-0.408-0.005-0.71-0.011-0.9c-0.006-0.219-0.021-0.395-0.032-0.524l0,0 c-0.013-0.103-0.025-0.181-0.046-0.234V60.83c-0.006-0.021-0.01-0.033-0.012-0.035l0,0c-0.004-0.004-0.013-0.008-0.019-0.011 c-0.021-0.01-0.062-0.015-0.125-0.015c-0.049,0-0.086,0.001-0.106,0.003c-0.039,0.003-0.095,0.011-0.156,0.021h-0.004 c-0.127,0.021-0.231,0.035-0.315,0.043c-0.114,0.014-0.207,0.021-0.276,0.021c-0.353,0-0.658-0.129-0.908-0.389 c-0.121-0.123-0.213-0.264-0.274-0.42c-0.062-0.154-0.097-0.318-0.097-0.487c0-0.414,0.16-0.745,0.479-1.004 c0.144-0.117,0.306-0.204,0.484-0.262h0.004c0.164-0.051,0.34-0.077,0.522-0.077c0.062,0,0.211,0.016,0.444,0.042 c0.111,0.015,0.406,0.051,0.861,0.107h0.004c0.168,0.022,0.344,0.04,0.526,0.053h0.002c0.162,0.013,0.33,0.019,0.504,0.019 c0.188,0,0.437-0.016,0.738-0.042c0.323-0.03,0.729-0.078,1.207-0.143l0.006-0.003c0.049-0.005,0.104-0.011,0.174-0.015v-0.001 c0.07-0.005,0.13-0.007,0.177-0.007c0.188,0,0.36,0.024,0.526,0.078c0.181,0.056,0.343,0.144,0.485,0.26 c0.154,0.125,0.271,0.271,0.354,0.437v0.006c0.082,0.175,0.126,0.356,0.126,0.554c0,0.174-0.032,0.338-0.097,0.494l0,0 c-0.062,0.154-0.156,0.295-0.273,0.417c-0.121,0.125-0.262,0.221-0.412,0.284c-0.158,0.067-0.324,0.103-0.496,0.103 c-0.078,0-0.17-0.005-0.271-0.016c-0.06-0.005-0.162-0.018-0.308-0.035l-0.021-0.003c-0.062-0.012-0.116-0.02-0.155-0.021 c-0.024-0.002-0.063-0.003-0.123-0.003c-0.058,0-0.097,0.005-0.115,0.015v0.001c-0.004,0.002-0.012,0.012-0.019,0.021 l-0.006,0.008c-0.008,0.015-0.022,0.14-0.045,0.374c-0.024,0.297-0.041,0.729-0.041,1.297h-0.002l0.024,1.749l0.004,0.008V65.8 l-0.004,0.01l-0.024,1.756h0.002c0,0.404,0.004,0.708,0.01,0.896c0.007,0.223,0.019,0.398,0.033,0.533 c0.013,0.095,0.022,0.171,0.043,0.228c0.008,0.02-0.002,0.015,0.002,0.021l0.021,0.025l0.004,0.002 c0.021,0.01,0.062,0.016,0.121,0.016c0.055,0,0.094-0.001,0.117-0.003c0.037-0.003,0.09-0.011,0.152-0.022h0.003 c0.122-0.019,0.228-0.032,0.312-0.043h0.006c0.113-0.012,0.209-0.019,0.279-0.019c0.172,0,0.338,0.035,0.496,0.101V69.3 c0.154,0.065,0.293,0.162,0.412,0.285c0.121,0.124,0.215,0.266,0.275,0.417l0,0c0.062,0.156,0.096,0.32,0.096,0.489 c0,0.415-0.16,0.745-0.479,1.004c-0.144,0.115-0.305,0.203-0.486,0.259v0.001c-0.164,0.053-0.34,0.078-0.525,0.078 c-0.064,0-0.223-0.017-0.463-0.048c-0.271-0.036-0.555-0.076-0.844-0.119l0,0c-0.145-0.02-0.293-0.035-0.445-0.045 c-0.145-0.01-0.309-0.015-0.488-0.015c-0.178,0-0.428,0.015-0.742,0.044c-0.348,0.032-0.783,0.082-1.312,0.146l-0.002,0.002 c-0.049,0.008-0.104,0.013-0.18,0.018l0,0c-0.072,0.005-0.135,0.007-0.182,0.007c-0.188,0-0.361-0.026-0.523-0.078l-0.002-0.002 c-0.178-0.057-0.336-0.143-0.479-0.257c-0.152-0.124-0.271-0.273-0.354-0.444l-0.002-0.003c-0.082-0.173-0.123-0.358-0.123-0.557 c0-0.169,0.031-0.333,0.097-0.489c0.062-0.156,0.153-0.297,0.272-0.42c0.123-0.126,0.262-0.221,0.414-0.286 c0.155-0.066,0.321-0.101,0.495-0.101c0.07,0,0.166,0.007,0.279,0.019h0.004c0.086,0.009,0.188,0.023,0.312,0.043h0.002 c0.064,0.011,0.119,0.021,0.158,0.022c0.023,0.002,0.064,0.003,0.123,0.003s0.1-0.006,0.117-0.018 c0.002-0.001,0.008-0.008,0.016-0.02c0.012-0.021,0.029-0.15,0.051-0.387c0.025-0.299,0.041-0.729,0.041-1.293h0.002l-0.023-1.75 V65.797L129.986,65.797z M137.29,64.98h2.821c0.177,0,0.349,0.027,0.513,0.086c0.172,0.06,0.326,0.147,0.461,0.266 c0.146,0.127,0.258,0.274,0.334,0.442c0.076,0.169,0.113,0.349,0.113,0.539c0,0.189-0.039,0.372-0.115,0.541l-0.002,0.002 c-0.076,0.166-0.187,0.311-0.328,0.438c-0.14,0.124-0.291,0.217-0.457,0.278V67.57c-0.168,0.062-0.34,0.093-0.519,0.093h-2.821 c-0.185,0-0.354-0.028-0.521-0.083h0.002c-0.183-0.061-0.34-0.153-0.476-0.271c-0.146-0.126-0.254-0.277-0.328-0.452h-0.002 c-0.069-0.167-0.104-0.35-0.104-0.541c0-0.19,0.037-0.37,0.113-0.539c0.073-0.168,0.187-0.315,0.334-0.442 c0.137-0.12,0.293-0.21,0.463-0.268h0.004C136.938,65.009,137.109,64.98,137.29,64.98L137.29,64.98z M146.622,65.674V64.31 c0-0.792-0.006-1.41-0.015-1.855c-0.012-0.497-0.028-0.925-0.051-1.284h-0.002c-0.013-0.146-0.029-0.264-0.056-0.347 c-0.013-0.04-0.021-0.062-0.021-0.063l-0.006-0.005c-0.019-0.021-0.004,0.032-0.062,0.032c-0.065,0-0.14,0.002-0.207,0.008 c-0.078,0.006-0.168,0.017-0.274,0.028v-0.001c-0.115,0.015-0.218,0.025-0.298,0.031c-0.106,0.008-0.202,0.012-0.282,0.012 c-0.414,0-0.748-0.113-1-0.341c-0.272-0.247-0.41-0.58-0.41-1c0-0.187,0.033-0.359,0.103-0.521 c0.067-0.163,0.174-0.311,0.313-0.439c0.136-0.125,0.285-0.217,0.453-0.277v-0.001c0.153-0.056,0.323-0.084,0.508-0.084 c0.072,0,0.183,0.006,0.328,0.019h0.002c0.069,0.007,0.235,0.022,0.479,0.048h0.006c0.072,0.008,0.152,0.014,0.236,0.018 c0.064,0.002,0.184,0.004,0.354,0.004c0.211,0,0.379-0.003,0.498-0.009h0.004c0.127-0.005,0.254-0.016,0.375-0.03v0.002 c0.156-0.02,0.299-0.036,0.42-0.047l0.004-0.003c0.133-0.012,0.244-0.018,0.334-0.018c0.189,0,0.365,0.027,0.52,0.084 c0.213,0.079,0.383,0.206,0.506,0.382c0.096,0.134,0.16,0.309,0.197,0.52c0.027,0.155,0.043,0.327,0.043,0.516l-0.002,0.02 l-0.113,3.926h0.002v2.05l-0.004,0.032c-0.002,0.059-0.002,0.213,0.002,0.468c0.004,0.267,0.016,0.646,0.023,1.143v0.011 c0.008,0.509,0.014,0.955,0.02,1.338v0.003c0.002,0.174,0.02,0.321,0.041,0.44v0.003c0.014,0.048,0.021,0.085,0.031,0.11 c0.018,0.002,0.037,0.003,0.062,0.003c0.062,0,0.145-0.004,0.236-0.014c0.104-0.009,0.23-0.021,0.375-0.041 c0.107-0.016,0.217-0.027,0.318-0.037l0,0c0.109-0.01,0.213-0.015,0.309-0.015c0.189,0,0.367,0.023,0.531,0.07 c0.188,0.053,0.354,0.137,0.498,0.25c0.164,0.128,0.289,0.283,0.373,0.464l0.002-0.001c0.08,0.174,0.121,0.364,0.121,0.567 c0,0.437-0.158,0.777-0.471,1.023c-0.262,0.205-0.604,0.31-1.031,0.31c-0.164,0-0.385-0.019-0.654-0.053l0,0 c-0.512-0.062-0.957-0.107-1.332-0.141c-0.361-0.03-0.654-0.045-0.875-0.045c-0.287,0-0.582,0.013-0.887,0.038 c-0.312,0.023-0.641,0.062-0.982,0.112h-0.006c-0.193,0.027-0.381,0.052-0.561,0.066c-0.191,0.02-0.342,0.028-0.447,0.028 c-0.396,0-0.736-0.11-1.008-0.329l-0.002-0.002c-0.156-0.126-0.273-0.277-0.354-0.45c-0.08-0.171-0.118-0.354-0.118-0.551 c0-0.452,0.172-0.801,0.516-1.048c0.272-0.196,0.634-0.293,1.072-0.293c0.067,0,0.162,0.004,0.285,0.012 c0.088,0.005,0.202,0.016,0.348,0.03l0,0c0.099,0.009,0.199,0.019,0.332,0.026c0.072,0.005,0.138,0.009,0.188,0.009 c0.035,0,0.039,0.017,0.043,0.011c0.027-0.029,0.047-0.113,0.06-0.25l0.004-0.008c0.021-0.195,0.033-0.562,0.043-1.099 C146.618,67.41,146.622,66.679,146.622,65.674L146.622,65.674z M159.34,57.934c0.93,0,1.762,0.191,2.492,0.58 c0.736,0.388,1.357,0.962,1.863,1.722l-0.002,0.001c0.229,0.343,0.428,0.736,0.594,1.178c0.158,0.429,0.289,0.901,0.385,1.415 c0.062,0.322,0.107,0.659,0.143,1.006c0.033,0.354,0.05,0.695,0.05,1.021c0,0.647-0.054,1.278-0.157,1.893 c-0.105,0.609-0.27,1.202-0.482,1.776h-0.002c-0.197,0.53-0.465,1.009-0.799,1.436c-0.338,0.433-0.738,0.808-1.205,1.123l0,0 c-0.453,0.313-0.941,0.547-1.461,0.702c-0.519,0.155-1.062,0.233-1.637,0.233c-0.986,0-1.861-0.222-2.623-0.657 c-0.764-0.438-1.393-1.083-1.891-1.938l0.002-0.001c-0.342-0.582-0.596-1.25-0.762-2.003c-0.162-0.733-0.244-1.558-0.244-2.466 c0-0.562,0.045-1.118,0.133-1.668c0.09-0.547,0.219-1.075,0.391-1.583v-0.003c0.191-0.562,0.453-1.072,0.773-1.527 c0.322-0.453,0.711-0.853,1.16-1.188c0.455-0.342,0.957-0.602,1.506-0.773c0.533-0.169,1.121-0.26,1.762-0.272L159.34,57.934 L159.34,57.934z M159.295,60.668c-0.486,0-0.9,0.105-1.238,0.314c-0.344,0.212-0.633,0.543-0.865,0.993l-0.006,0.008 c-0.084,0.157-0.16,0.339-0.229,0.547c-0.072,0.22-0.135,0.475-0.189,0.763c-0.059,0.297-0.1,0.588-0.125,0.87 c-0.025,0.276-0.041,0.571-0.041,0.884c0,0.77,0.064,1.435,0.195,1.991c0.123,0.525,0.303,0.954,0.535,1.286l0,0 c0.236,0.333,0.504,0.581,0.801,0.74c0.291,0.153,0.625,0.231,1.002,0.231c0.471,0,0.873-0.104,1.213-0.309 c0.348-0.21,0.646-0.538,0.896-0.979l0,0c0.088-0.158,0.172-0.354,0.25-0.582l0,0c0.08-0.235,0.148-0.505,0.211-0.803 c0.062-0.302,0.107-0.607,0.143-0.919c0.027-0.298,0.045-0.615,0.045-0.947c0-0.7-0.062-1.315-0.188-1.842 c-0.121-0.504-0.302-0.936-0.535-1.292V61.62c-0.203-0.309-0.457-0.542-0.76-0.698c-0.312-0.159-0.685-0.247-1.111-0.258v0.004 H159.295z M168.206,64.09l-0.013-0.012v-0.002c-0.323-0.285-0.567-0.619-0.729-1c-0.159-0.376-0.239-0.788-0.239-1.236 c0-0.606,0.144-1.167,0.422-1.676c0.274-0.495,0.681-0.929,1.209-1.297h0.002c0.437-0.299,0.92-0.524,1.457-0.673 c0.526-0.146,1.099-0.219,1.705-0.219c0.338,0,0.676,0.024,1.014,0.079c0.337,0.052,0.654,0.13,0.953,0.231l0,0 c0.312,0.105,0.599,0.233,0.854,0.384c0.269,0.155,0.502,0.334,0.707,0.534c0.345,0.335,0.604,0.712,0.777,1.129 s0.264,0.869,0.264,1.354c0,0.478-0.08,0.911-0.237,1.299c-0.162,0.402-0.41,0.75-0.74,1.042l0,0 c-0.028,0.022-0.06,0.049-0.088,0.074c0.119,0.078,0.229,0.161,0.338,0.248l0,0c0.498,0.402,0.877,0.863,1.132,1.382 c0.26,0.524,0.389,1.099,0.389,1.716c0,0.667-0.144,1.284-0.426,1.851c-0.279,0.559-0.692,1.055-1.242,1.487l0,0 c-0.241,0.193-0.513,0.364-0.81,0.512V71.3c-0.291,0.146-0.61,0.271-0.961,0.375v-0.002c-0.349,0.106-0.692,0.187-1.035,0.235 c-0.354,0.053-0.713,0.079-1.067,0.079c-0.487,0-0.969-0.049-1.438-0.147c-0.469-0.097-0.92-0.24-1.354-0.435v0.001 c-0.436-0.191-0.82-0.435-1.162-0.73c-0.346-0.298-0.637-0.645-0.871-1.036l-0.004-0.01c-0.191-0.33-0.34-0.679-0.438-1.045 c-0.096-0.369-0.146-0.751-0.146-1.146c0-0.94,0.258-1.748,0.771-2.421C167.463,64.667,167.801,64.356,168.206,64.09 L168.206,64.09z M171.895,60.641c-0.295,0-0.559,0.034-0.783,0.104h-0.002c-0.209,0.065-0.395,0.162-0.551,0.289l0,0 c-0.141,0.115-0.24,0.235-0.307,0.357c-0.055,0.104-0.082,0.224-0.082,0.352c0,0.162,0.033,0.3,0.1,0.414 c0.066,0.121,0.179,0.228,0.33,0.321l0.008,0.005c0.146,0.095,0.324,0.168,0.521,0.219c0.217,0.055,0.459,0.082,0.729,0.082 c0.345,0,0.642-0.038,0.894-0.114c0.229-0.067,0.418-0.167,0.567-0.296l0,0c0.104-0.093,0.187-0.192,0.234-0.302l-0.003-0.001 c0.052-0.111,0.076-0.242,0.076-0.391c0-0.15-0.026-0.276-0.08-0.378c-0.06-0.108-0.151-0.211-0.282-0.301v0.002 c-0.169-0.115-0.361-0.206-0.576-0.265c-0.233-0.065-0.5-0.1-0.793-0.104V60.641L171.895,60.641z M171.84,65.555 c-0.438,0-0.816,0.052-1.131,0.155c-0.293,0.099-0.541,0.241-0.738,0.432v0.002c-0.188,0.177-0.326,0.365-0.416,0.57 c-0.09,0.199-0.135,0.42-0.135,0.663c0,0.317,0.059,0.594,0.172,0.824c0.111,0.229,0.287,0.429,0.521,0.603l-0.002,0.001 c0.227,0.162,0.483,0.287,0.77,0.37c0.299,0.088,0.637,0.132,1.014,0.132c0.498,0,0.916-0.063,1.256-0.189v-0.003 c0.312-0.115,0.562-0.284,0.752-0.504l0.008-0.005c0.15-0.173,0.268-0.36,0.342-0.56c0.074-0.193,0.109-0.407,0.109-0.642 c0-0.275-0.051-0.521-0.148-0.735c-0.102-0.215-0.252-0.41-0.455-0.581l-0.002,0.001c-0.195-0.166-0.445-0.293-0.746-0.382 c-0.334-0.099-0.723-0.149-1.166-0.157v0.005H171.84z"></path> <path id="TI_LOGO" fill="#FFFFFF" d="M19.229,60.271c0.917-0.008,2.007,0.096,2.394,0.248c-0.009,0.207-0.057,1.059-0.057,1.135 c-0.009,1.229,0.663,1.393,0.663,1.393s0.085,0.481,0.047,1.079c-0.047,0.823-0.199,1.324-0.199,1.324 c-0.342,0.115-1.154,0.371-2.082,1.023c-0.701,0.501-1.315,1.248-1.315,2.044c0,0.501,0.095,0.858,0.226,1.152 c0,0-0.321,0.221-0.917,0.184c-0.738-0.029-1.61-0.685-2.121-1.62c-0.672-1.212-0.994-2.643-1.797-2.643 c-0.72,0-0.729,0.823-1.335,0.823c-0.709,0-1.07-1.155-1.306-1.636c-0.389-0.759-1.411-1.042-1.526-2.235h3.25 c0-1.778,0-2.84,0-4.608c1.183,0,1.873,0,3.038,0v1.932c0.114,0.104,0.387,0.227,0.729,0.283l-0.341,1.533h-0.975l-0.332,1.383 h0.994l-0.358,1.676c-0.058,0.294-0.142,0.852-0.048,1.167c0.17,0.604,0.634,0.859,1.183,0.859c0.852,0,1.646-0.352,1.646-0.352 l0.313-1.182c-0.113,0.025-0.377,0.057-0.53,0.057c-0.17,0-0.341-0.057-0.265-0.427l0.398-1.799h0.984l0.312-1.383h-0.995 L19.229,60.271L19.229,60.271z M73.02,64.523h0.72c0.597,0,1.231-0.226,1.231-0.84c0-0.393-0.218-0.833-1.058-0.833H73.39 c-0.303,0-0.371,0.045-0.371,0.396L73.02,64.523L73.02,64.523z M74.24,62.243c1.109,0,1.914,0.378,1.914,1.316 c0,1.012-0.927,1.211-1.401,1.305c1.317,0.541,1.401,2.264,2.223,2.264v0.124c-0.113,0.066-0.339,0.168-0.698,0.168 c-1.913,0-1.441-2.271-2.681-2.271H73.02v1.393c0,0.491,0.21,0.633,0.465,0.682v0.151h-2.093v-0.151 c0.273-0.048,0.472-0.188,0.472-0.682V63.06c0-0.485-0.227-0.626-0.472-0.674v-0.142L74.24,62.243L74.24,62.243z M106.902,62.155 c0.604,0,1.031,0.143,1.164,0.188c0.147,0.051,0.113-0.103,0.144-0.141l0.133-0.027l0.375,1.23l-0.129,0.046 c-0.256-0.302-0.748-0.671-1.603-0.671c-0.405,0-1.039,0.084-1.039,0.614c0.001,0.975,3.169,0.417,3.169,2.463 c0,0.937-0.773,1.59-2.214,1.59c-0.577,0-1.016-0.096-1.394-0.201c-0.133-0.028-0.141,0.048-0.17,0.125l-0.162,0.066 l-0.526-1.497l0.16-0.059c0.397,0.501,1.051,0.947,2.019,0.947c0.897,0,1.114-0.352,1.114-0.689c0-1.185-3.073-0.436-3.073-2.488 C104.87,62.706,105.881,62.155,106.902,62.155L106.902,62.155z M101.575,63.253v3.296c0,0.492-0.154,0.604-0.476,0.683v0.148 h2.11v-0.15c-0.293-0.059-0.476-0.189-0.476-0.683v-3.296c0-0.32,0.097-0.388,0.312-0.388c0.891,0,1.014,0.019,1.496,0.604 l0.123-0.045l-0.398-1.175h-4.24l-0.396,1.175l0.132,0.045c0.478-0.587,0.627-0.604,1.518-0.604 C101.499,62.866,101.575,62.931,101.575,63.253L101.575,63.253z M89.514,67.38v-0.15c0.303-0.059,0.465-0.199,0.465-0.692v-3.474 c0-0.473-0.219-0.624-0.465-0.663v-0.15h3.994l0.381,1.099l-0.123,0.058c-0.342-0.438-0.722-0.54-1.271-0.54 c-0.093,0-0.993,0-0.993,0c-0.304,0-0.369,0.085-0.369,0.388v1.108h1.324c0.501,0,0.634-0.152,0.673-0.368h0.142v1.39H93.13 c-0.039-0.255-0.159-0.355-0.672-0.355h-1.324v1.344c0,0.322,0.064,0.397,0.369,0.397h1.211c0.481,0,0.968-0.065,1.354-0.54 l0.125,0.047l-0.392,1.105L89.514,67.38L89.514,67.38z M99.148,67.449H98.96l-3.476-3.702v2.802c0,0.492,0.259,0.646,0.483,0.683 v0.148h-1.627v-0.15c0.246-0.037,0.474-0.189,0.474-0.683v-3.502c0-0.494-0.172-0.597-0.474-0.652V62.25h1.476l2.649,2.906 v-2.093c0-0.481-0.217-0.624-0.463-0.671v-0.144h1.619v0.144c-0.22,0.047-0.478,0.188-0.478,0.671L99.148,67.449L99.148,67.449z M88.453,66.549c0,0.492,0.256,0.646,0.484,0.683v0.148h-2.103v-0.15c0.239-0.037,0.464-0.189,0.464-0.683v-2.454l-1.864,3.383 h-0.113l-1.931-3.475v2.546c0,0.492,0.273,0.646,0.491,0.683v0.148h-1.619V67.23c0.246-0.037,0.463-0.189,0.463-0.683v-3.483 c0-0.53-0.217-0.624-0.463-0.663v-0.15h1.646l1.724,3.37l1.884-3.37h1.4v0.15c-0.246,0.039-0.465,0.133-0.465,0.663v3.483 L88.453,66.549L88.453,66.549z M64.299,62.147c0.607,0,1.023,0.143,1.166,0.188c0.152,0.048,0.104-0.104,0.143-0.143l0.123-0.027 l0.387,1.23l-0.142,0.047c-0.253-0.304-0.749-0.671-1.601-0.671c-0.406,0-1.03,0.084-1.03,0.612c0,0.978,3.171,0.418,3.171,2.463 c0,0.938-0.785,1.591-2.217,1.591c-0.585,0-1.011-0.098-1.4-0.198c-0.123-0.03-0.141,0.046-0.161,0.123l-0.159,0.064 l-0.541-1.495l0.161-0.058c0.397,0.5,1.049,0.946,2.016,0.946c0.901,0,1.118-0.353,1.118-0.691c0-1.184-3.076-0.435-3.076-2.488 C62.257,62.697,63.269,62.147,64.299,62.147L64.299,62.147z M68.287,63.246v3.296c0,0.491-0.152,0.606-0.465,0.682v0.151h2.093 v-0.151c-0.293-0.058-0.463-0.188-0.463-0.682v-3.296c0-0.322,0.095-0.389,0.312-0.389c0.889,0,1.014,0.02,1.494,0.605 l0.124-0.047l-0.397-1.174h-4.242l-0.396,1.174l0.132,0.048c0.473-0.588,0.625-0.605,1.512-0.605 C68.212,62.857,68.287,62.924,68.287,63.246L68.287,63.246z M81.52,65.66v-2.602c0-0.485,0.219-0.626,0.465-0.675v-0.142h-1.609 v0.142c0.246,0.048,0.474,0.188,0.474,0.674v2.603c0,0.825-0.634,1.174-1.363,1.174c-0.806,0-1.344-0.35-1.344-1.174v-2.602 c0-0.485,0.217-0.637,0.465-0.675v-0.142h-2.083v0.142c0.237,0.038,0.462,0.188,0.462,0.674v2.611 c0,1.458,1.439,1.799,2.312,1.799C80.167,67.469,81.52,67.119,81.52,65.66L81.52,65.66z M61.347,67.44h-0.18l-3.484-3.702v2.803 c0,0.491,0.218,0.633,0.464,0.682v0.151h-1.61v-0.151C56.822,67.165,57,67.033,57,66.541v-3.505c0-0.48-0.161-0.595-0.463-0.652 v-0.142h1.468l2.67,2.906v-2.091c0-0.485-0.201-0.616-0.466-0.674v-0.142h1.612v0.142c-0.247,0.048-0.474,0.188-0.474,0.675 V67.44L61.347,67.44z M54.246,61.372c0-0.491-0.227-0.634-0.473-0.681v-0.132h2.244v0.132c-0.235,0.047-0.482,0.188-0.482,0.681 v5.17c0,0.501,0.254,0.645,0.481,0.682v0.151h-2.244v-0.151c0.247-0.037,0.473-0.188,0.473-0.682L54.246,61.372L54.246,61.372z M42.821,63.14l-0.816,2.073h1.63L42.821,63.14L42.821,63.14z M37.414,64.791l-1.467-1.933c-0.284-0.369-0.417-0.511-0.749-0.559 v-0.151h2.377V62.3c-0.246,0-0.435,0.236-0.18,0.596l0.711,1.015l0.832-1.107c0.189-0.256,0.133-0.501-0.161-0.501V62.15h1.902 v0.15c-0.283,0.037-0.586,0.151-0.861,0.541l-1.259,1.665l1.468,2.073c0.189,0.255,0.37,0.417,0.37,0.417 s0.246-0.143,0.586-0.958l1.629-3.891h0.994l1.847,4.412c0.095,0.246,0.377,0.528,0.653,0.575v0.153H43.87v-0.153 c0.134,0,0.512-0.074,0.292-0.604l-0.282-0.7h-2.139l-0.294,0.729c-0.2,0.491,0.198,0.575,0.322,0.575v0.153h-3.332v-0.153 c0.17,0,0.539-0.14,0.216-0.594l-0.793-1.098l-0.892,1.189c-0.246,0.322-0.046,0.501,0.172,0.501v0.153h-1.942v-0.153 c0.286-0.034,0.635-0.255,0.938-0.633L37.414,64.791L37.414,64.791z M29.187,66.473c0,0.474,0.236,0.626,0.492,0.661v0.153 h-2.243v-0.153c0.274-0.034,0.474-0.188,0.474-0.661v-4.959c0-0.285-0.142-0.275-0.492-0.275c-1.108,0-1.534,0.021-1.922,0.475 l-0.132-0.057l0.398-1.184h5.575l0.388,1.184l-0.123,0.057c-0.387-0.455-0.815-0.475-1.922-0.475c-0.35,0-0.492-0.01-0.492,0.275 L29.187,66.473L29.187,66.473z M30.513,67.289H34.8l0.397-1.106l-0.123-0.049c-0.388,0.476-0.879,0.531-1.353,0.531H32.51 c-0.303,0-0.369-0.065-0.369-0.388v-1.354h1.325c0.511,0,0.625,0.104,0.672,0.358h0.142v-1.4h-0.142 c-0.047,0.246-0.17,0.377-0.672,0.377h-1.325V63.15c0-0.301,0.066-0.386,0.369-0.386c0,0,0.9,0,0.994,0 c0.539,0,0.927,0.104,1.27,0.536l0.122-0.056l-0.377-1.099h-4.005V62.3c0.295,0.048,0.474,0.188,0.474,0.663v3.483 c0,0.491-0.172,0.634-0.474,0.688L30.513,67.289L30.513,67.289z M48.254,62.091c-1.021,0-2.045,0.551-2.045,1.486 c0,2.053,3.077,1.306,3.077,2.5c0,0.332-0.219,0.68-1.116,0.68c-0.968,0-1.621-0.435-2.017-0.938l-0.163,0.059l0.541,1.486 l0.161-0.067c0.019-0.064,0.038-0.148,0.16-0.111c0.389,0.104,0.814,0.197,1.401,0.197c1.429,0,2.216-0.651,2.216-1.601 c0-2.034-3.171-1.477-3.171-2.461c0-0.521,0.624-0.616,1.031-0.616c0.852,0,1.345,0.371,1.601,0.673l0.141-0.047l-0.388-1.229 l-0.122,0.037c-0.038,0.028,0.008,0.18-0.142,0.133C49.275,62.233,48.859,62.091,48.254,62.091L48.254,62.091z M18.179,59.126 c-0.36,0-0.682,0.275-0.682,0.663c0,0.397,0.304,0.634,0.682,0.635c0.379,0,0.663-0.256,0.663-0.635 C18.842,59.382,18.538,59.126,18.179,59.126L18.179,59.126z M17.345,60.792l-0.975,4.421h1.184l1.003-4.421H17.345z"></path> </g> </g> </g> <rect id="Display_Rect" x="24" y="20.5" fill="#C5CEBD" stroke="#E4E5E6" width="138" height="31"></rect> <g id="EQUALS"> <path id="color" fill="#DE1F2A" stroke="#414042" stroke-width="0.25" stroke-miterlimit="10" d="M170.586,289.466 c0,1.188-0.975,2.16-2.16,2.16H142.01c-1.188,0-2.16-0.973-2.16-2.16v-45.945c0-1.188,0.974-2.16,2.16-2.16h26.416 c1.188,0,2.16,0.972,2.16,2.16V289.466z"></path> <g id="art"> <path id="path5374" fill="#FFFFFF" d="M152.84,244.556c0.152,0,0.285,0.058,0.402,0.17c0.115,0.11,0.174,0.248,0.174,0.403v0.124 c0,0.15-0.059,0.285-0.174,0.4c-0.117,0.117-0.252,0.176-0.402,0.176h-6.783c-0.158,0-0.295-0.059-0.406-0.176 c-0.111-0.115-0.17-0.25-0.17-0.4v-0.124c0-0.155,0.059-0.293,0.17-0.403c0.111-0.113,0.248-0.17,0.406-0.17H152.84z"></path> <path id="path5376" fill="#FFFFFF" d="M152.84,248.382c0.152,0,0.285-0.057,0.402-0.169c0.115-0.11,0.174-0.248,0.174-0.403 v-0.125c0-0.149-0.059-0.283-0.174-0.399c-0.117-0.117-0.252-0.177-0.402-0.177h-6.783c-0.158,0-0.295,0.06-0.406,0.177 c-0.111,0.116-0.17,0.25-0.17,0.399v0.125c0,0.155,0.059,0.293,0.17,0.403c0.111,0.113,0.248,0.169,0.406,0.169H152.84z"></path> </g> </g> <g id="ADD"> <path id="color_3_" fill="#DE1F2A" stroke="#414042" stroke-width="0.25" stroke-miterlimit="10" d="M170.586,229.905 c0,1.188-0.973,2.16-2.16,2.16h-26.418c-1.188,0-2.158-0.975-2.158-2.16v-16.312c0-1.188,0.974-2.158,2.158-2.158h26.418 c1.188,0,2.16,0.973,2.16,2.158V229.905z"></path> <path id="art_3_" fill="#FFFFFF" d="M152.84,215.822c0.152,0,0.285,0.057,0.402,0.169c0.115,0.113,0.174,0.248,0.174,0.406v0.123 c0,0.148-0.059,0.285-0.174,0.398c-0.117,0.117-0.252,0.178-0.402,0.178h-2.754v2.328c0,0.157-0.061,0.293-0.176,0.406 c-0.115,0.111-0.25,0.169-0.398,0.169h-0.125c-0.158,0-0.295-0.056-0.406-0.169s-0.17-0.248-0.17-0.406v-2.328h-2.754 c-0.158,0-0.295-0.061-0.406-0.178c-0.111-0.113-0.17-0.25-0.17-0.398v-0.123c0-0.158,0.059-0.293,0.17-0.406 s0.248-0.169,0.406-0.169h2.754v-2.33c0-0.15,0.059-0.285,0.17-0.4c0.111-0.114,0.25-0.176,0.406-0.176h0.125 c0.146,0,0.281,0.062,0.398,0.176c0.115,0.116,0.176,0.251,0.176,0.4v2.33H152.84z"></path> </g> <g id="SUBTRACT"> <path id="color_1_" fill="#DE1F2A" stroke="#414042" stroke-width="0.25" stroke-miterlimit="10" d="M170.586,199.961 c0,1.188-0.973,2.16-2.16,2.16h-26.418c-1.188,0-2.158-0.972-2.158-2.16v-16.312c0-1.188,0.974-2.159,2.158-2.159h26.418 c1.188,0,2.16,0.972,2.16,2.159V199.961z"></path> <path id="art_1_" fill="#FFFFFF" d="M152.84,186c0.152,0,0.285,0.06,0.402,0.169c0.115,0.113,0.174,0.248,0.174,0.406v0.124 c0,0.149-0.059,0.284-0.174,0.399c-0.117,0.115-0.252,0.176-0.402,0.176h-6.783c-0.158,0-0.295-0.061-0.406-0.176 s-0.17-0.25-0.17-0.399v-0.124c0-0.158,0.059-0.293,0.17-0.406c0.111-0.111,0.248-0.169,0.406-0.169H152.84z"></path> </g> <g id="MULTIPLY"> <path id="color_2_" fill="#DE1F2A" stroke="#414042" stroke-width="0.25" stroke-miterlimit="10" d="M170.586,170.344 c0,1.188-0.973,2.16-2.16,2.16h-26.418c-1.188,0-2.158-0.972-2.158-2.16v-16.311c0-1.188,0.974-2.16,2.158-2.16h26.418 c1.188,0,2.16,0.972,2.16,2.16V170.344z"></path> <path id="art_2_" fill="#FFFFFF" d="M151.98,154.235c0.119-0.092,0.261-0.128,0.42-0.11c0.162,0.021,0.291,0.091,0.388,0.216 l0.075,0.101c0.091,0.119,0.128,0.261,0.104,0.424c-0.021,0.164-0.092,0.292-0.211,0.383l-2.262,1.735l2.254,1.729 c0.125,0.098,0.197,0.225,0.221,0.381c0.021,0.158-0.018,0.303-0.113,0.428l-0.076,0.099c-0.092,0.119-0.217,0.19-0.377,0.215 c-0.158,0.023-0.305-0.013-0.43-0.106l-2.524-1.938l-2.524,1.938c-0.125,0.096-0.27,0.132-0.428,0.105 c-0.16-0.021-0.287-0.095-0.379-0.214l-0.076-0.099c-0.098-0.125-0.134-0.27-0.113-0.428c0.021-0.156,0.098-0.283,0.223-0.381 l2.254-1.729l-2.262-1.735c-0.119-0.091-0.188-0.219-0.211-0.383c-0.021-0.163,0.014-0.305,0.104-0.424l0.072-0.101 c0.098-0.125,0.229-0.195,0.389-0.216c0.158-0.019,0.301,0.02,0.422,0.11l2.53,1.941L151.98,154.235z"></path> </g> <g id="DIVIDE"> <path id="color_4_" fill="#DE1F2A" stroke="#414042" stroke-width="0.25" stroke-miterlimit="10" d="M170.586,140.563 c0,1.188-0.973,2.16-2.16,2.16h-26.418c-1.188,0-2.158-0.974-2.158-2.16v-16.312c0-1.188,0.974-2.16,2.158-2.16h26.418 c1.188,0,2.16,0.974,2.16,2.16V140.563z"></path> <g id="art_4_"> <path id="path5690" fill="#FFFFFF" d="M152.84,126.433c0.152,0,0.285,0.057,0.402,0.169c0.115,0.111,0.174,0.249,0.174,0.405 v0.124c0,0.15-0.059,0.284-0.174,0.4c-0.117,0.117-0.252,0.175-0.402,0.175h-6.783c-0.158,0-0.295-0.059-0.406-0.175 c-0.111-0.116-0.17-0.25-0.17-0.4v-0.124c0-0.156,0.059-0.293,0.17-0.405c0.111-0.113,0.248-0.169,0.406-0.169H152.84z"></path> <path id="path5692" fill="#FFFFFF" d="M149.448,128.346c0.627,0,1.135,0.508,1.135,1.134s-0.508,1.134-1.135,1.134 c-0.628,0-1.134-0.508-1.134-1.134S148.82,128.346,149.448,128.346L149.448,128.346z M149.448,123.527 c0.627,0,1.135,0.508,1.135,1.134s-0.508,1.134-1.135,1.134c-0.628,0-1.134-0.507-1.134-1.134 C148.314,124.035,148.82,123.527,149.448,123.527z"></path> </g> </g> <g id="MPLUS"> <path id="color_5_" fill="#DE1F2A" stroke="#414042" stroke-width="0.25" stroke-miterlimit="10" d="M119.375,170.344 c0,1.188-0.973,2.16-2.16,2.16H90.798c-1.188,0-2.16-0.972-2.16-2.16v-16.311c0-1.188,0.972-2.16,2.16-2.16h26.417 c1.188,0,2.16,0.972,2.16,2.16V170.344z"></path> <g id="art_5_"> <path id="path5772" fill="#FFFFFF" d="M108,156.585c0.117,0,0.223,0.044,0.312,0.132c0.088,0.089,0.137,0.193,0.137,0.316v0.096 c0,0.117-0.047,0.223-0.137,0.312c-0.092,0.09-0.195,0.136-0.312,0.136h-2.174v1.891c0,0.121-0.047,0.229-0.137,0.316 s-0.193,0.131-0.312,0.131h-0.098c-0.121,0-0.229-0.043-0.314-0.131c-0.088-0.088-0.131-0.193-0.131-0.316v-1.891h-2.174 c-0.123,0-0.229-0.045-0.316-0.136c-0.087-0.091-0.133-0.195-0.133-0.312v-0.096c0-0.123,0.045-0.229,0.133-0.316 c0.088-0.087,0.193-0.132,0.316-0.132h2.174v-1.891c0-0.117,0.043-0.222,0.131-0.312c0.088-0.09,0.193-0.136,0.314-0.136h0.098 c0.117,0,0.223,0.045,0.312,0.136c0.09,0.092,0.137,0.195,0.137,0.312v1.891H108z"></path> <path id="path5774" fill="#FFFFFF" d="M100.504,159.688c0,0.122-0.047,0.228-0.137,0.313c-0.092,0.088-0.197,0.133-0.32,0.133 h0.01c-0.123,0-0.229-0.045-0.314-0.133c-0.09-0.088-0.135-0.191-0.135-0.313v-3.992h-0.016l-1.721,3.112 c-0.037,0.067-0.092,0.125-0.16,0.168s-0.146,0.062-0.23,0.062c-0.086,0-0.162-0.021-0.23-0.062 c-0.066-0.042-0.125-0.101-0.168-0.168l-1.711-3.112h-0.02v3.992c0,0.122-0.045,0.228-0.137,0.313 c-0.09,0.088-0.195,0.133-0.318,0.133h0.008c-0.122,0-0.229-0.045-0.314-0.133s-0.131-0.191-0.131-0.313v-5.408 c0-0.123,0.043-0.229,0.131-0.32s0.192-0.136,0.314-0.136h0.178c0.184,0,0.312,0.08,0.398,0.24l2,3.632l2-3.632 c0.031-0.075,0.086-0.133,0.16-0.176c0.072-0.045,0.15-0.064,0.23-0.064h0.176c0.123,0,0.229,0.045,0.32,0.136 c0.09,0.091,0.137,0.197,0.137,0.32V159.688z"></path> </g> </g> <g id="MMINUS"> <path id="color_6_" fill="#DE1F2A" stroke="#414042" stroke-width="0.25" stroke-miterlimit="10" d="M82.399,170.344 c0,1.188-0.972,2.16-2.16,2.16H53.823c-1.188,0-2.16-0.972-2.16-2.16v-16.311c0-1.188,0.972-2.16,2.16-2.16H80.24 c1.188,0,2.16,0.972,2.16,2.16L82.399,170.344L82.399,170.344z"></path> <g id="art_6_"> <path id="path5854" fill="#FFFFFF" d="M71.151,156.585c0.117,0,0.221,0.044,0.312,0.132c0.091,0.089,0.136,0.193,0.136,0.316 v0.096c0,0.117-0.045,0.223-0.136,0.312c-0.09,0.09-0.195,0.136-0.312,0.136H65.81c-0.123,0-0.229-0.045-0.316-0.136 c-0.088-0.09-0.132-0.195-0.132-0.312v-0.096c0-0.123,0.044-0.229,0.132-0.316c0.087-0.088,0.193-0.132,0.316-0.132H71.151z"></path> <path id="path5856" fill="#FFFFFF" d="M63.653,159.688c0,0.122-0.045,0.228-0.136,0.313c-0.09,0.088-0.197,0.133-0.32,0.133h0.008 c-0.123,0-0.228-0.045-0.316-0.133c-0.088-0.088-0.132-0.191-0.132-0.313v-3.992h-0.016l-1.72,3.112 c-0.038,0.067-0.091,0.125-0.16,0.168c-0.069,0.043-0.146,0.062-0.232,0.062s-0.163-0.021-0.232-0.062s-0.125-0.101-0.167-0.168 l-1.712-3.112h-0.016v3.992c0,0.122-0.045,0.228-0.136,0.313c-0.091,0.087-0.197,0.133-0.32,0.133h0.008 c-0.123,0-0.228-0.045-0.316-0.133c-0.088-0.088-0.132-0.191-0.132-0.313v-5.408c0-0.123,0.044-0.229,0.132-0.32 c0.088-0.091,0.193-0.136,0.316-0.136h0.176c0.181,0,0.314,0.08,0.4,0.24l2,3.632l2-3.632c0.032-0.075,0.085-0.133,0.16-0.176 c0.074-0.045,0.152-0.064,0.231-0.064h0.176c0.123,0,0.229,0.045,0.32,0.136c0.091,0.091,0.136,0.197,0.136,0.32V159.688 L63.653,159.688z"></path> </g> </g> <g id="MRC"> <path id="color_7_" fill="#DE1F2A" stroke="#414042" stroke-width="0.25" stroke-miterlimit="10" d="M45.65,170.344 c0,1.188-0.972,2.16-2.16,2.16H17.073c-1.188,0-2.16-0.972-2.16-2.16v-16.311c0-1.188,0.972-2.16,2.16-2.16H43.49 c1.188,0,2.16,0.972,2.16,2.16V170.344z"></path> <g id="art_7_"> <path id="path5936" fill="#FFFFFF" d="M26.802,159.732c0,0.123-0.045,0.229-0.136,0.314s-0.197,0.131-0.32,0.131h0.008 c-0.123,0-0.228-0.043-0.316-0.131s-0.132-0.191-0.132-0.314v-3.992H25.89l-1.72,3.112c-0.037,0.068-0.09,0.126-0.16,0.168 c-0.069,0.042-0.146,0.062-0.231,0.062c-0.085,0-0.163-0.021-0.232-0.062c-0.069-0.043-0.125-0.101-0.168-0.168l-1.712-3.112 H21.65v3.992c0,0.123-0.045,0.229-0.136,0.314c-0.091,0.087-0.197,0.131-0.32,0.131h0.008c-0.123,0-0.228-0.043-0.316-0.131 c-0.088-0.088-0.132-0.191-0.132-0.314v-5.408c0-0.123,0.044-0.229,0.132-0.32c0.088-0.091,0.193-0.136,0.316-0.136h0.176 c0.182,0,0.315,0.08,0.4,0.24l2,3.632l2-3.632c0.032-0.075,0.085-0.133,0.16-0.176s0.152-0.064,0.232-0.064h0.176 c0.123,0,0.229,0.045,0.32,0.136s0.136,0.197,0.136,0.32V159.732L26.802,159.732z M33.954,155.644 c0,0.336-0.051,0.619-0.152,0.848c-0.101,0.229-0.225,0.413-0.372,0.552c-0.146,0.141-0.302,0.24-0.468,0.306 c-0.166,0.062-0.312,0.101-0.44,0.11l1.008,2.072c0.032,0.062,0.048,0.131,0.048,0.2c0,0.123-0.045,0.229-0.136,0.314 c-0.091,0.087-0.197,0.133-0.32,0.133c-0.091,0-0.174-0.023-0.248-0.071c-0.075-0.048-0.131-0.109-0.168-0.187l-1.167-2.431 h-2.312v2.28c0,0.104-0.04,0.201-0.12,0.284c-0.08,0.081-0.176,0.122-0.288,0.122h-0.08c-0.106,0-0.203-0.041-0.288-0.122 c-0.085-0.083-0.128-0.18-0.128-0.284v-5.456c0-0.123,0.045-0.229,0.136-0.32c0.09-0.091,0.197-0.136,0.32-0.136h3.224 c0.245,0,0.485,0.033,0.72,0.1c0.234,0.067,0.444,0.172,0.628,0.316s0.331,0.328,0.439,0.552 C33.899,155.052,33.954,155.324,33.954,155.644L33.954,155.644z M33.05,155.644c0-0.178-0.03-0.321-0.092-0.438 s-0.141-0.206-0.24-0.271c-0.099-0.067-0.21-0.113-0.336-0.142c-0.125-0.024-0.252-0.04-0.38-0.04h-2.776v1.842h2.776 c0.336,0,0.595-0.083,0.776-0.248C32.959,156.183,33.05,155.948,33.05,155.644L33.05,155.644z M40.802,158.948 c0,0.112-0.048,0.222-0.144,0.328c-0.149,0.16-0.325,0.299-0.528,0.416c-0.203,0.118-0.424,0.216-0.664,0.296 c-0.24,0.08-0.495,0.141-0.764,0.18c-0.27,0.041-0.545,0.062-0.828,0.062c-0.421,0-0.83-0.077-1.224-0.232 c-0.395-0.154-0.744-0.371-1.048-0.65c-0.304-0.279-0.548-0.615-0.732-1.009c-0.185-0.392-0.276-0.828-0.276-1.308 c0-0.458,0.084-0.888,0.252-1.288c0.168-0.4,0.397-0.749,0.688-1.048c0.291-0.299,0.634-0.533,1.032-0.704 c0.397-0.17,0.828-0.256,1.292-0.256c0.32,0,0.623,0.036,0.908,0.106c0.285,0.072,0.544,0.16,0.776,0.266 c0.232,0.104,0.43,0.21,0.596,0.318c0.165,0.109,0.285,0.199,0.36,0.27c0.069,0.085,0.104,0.182,0.104,0.288 c0,0.123-0.044,0.227-0.132,0.312c-0.088,0.085-0.193,0.128-0.316,0.128c-0.139,0-0.25-0.051-0.336-0.15 c-0.069-0.061-0.167-0.125-0.292-0.2c-0.125-0.075-0.272-0.146-0.44-0.208c-0.168-0.064-0.356-0.119-0.564-0.164 s-0.427-0.068-0.656-0.068c-0.288,0-0.575,0.054-0.86,0.156c-0.285,0.104-0.54,0.257-0.764,0.46 c-0.225,0.203-0.405,0.454-0.544,0.752c-0.139,0.298-0.208,0.645-0.208,1.032c0,0.277,0.056,0.553,0.168,0.828 c0.112,0.272,0.277,0.521,0.496,0.74c0.219,0.219,0.489,0.396,0.812,0.531c0.323,0.138,0.697,0.203,1.124,0.203 c0.224,0,0.438-0.021,0.644-0.062c0.205-0.043,0.395-0.101,0.568-0.168c0.173-0.069,0.325-0.146,0.456-0.229 c0.131-0.083,0.231-0.165,0.3-0.244c0.086-0.078,0.185-0.118,0.296-0.118c0.106,0,0.192,0.021,0.256,0.066 s0.109,0.099,0.136,0.156C40.778,158.796,40.796,158.868,40.802,158.948z"></path> </g> </g> <g id="PERCENT"> <path id="color_8_" fill="#DE1F2A" stroke="#414042" stroke-width="0.25" stroke-miterlimit="10" d="M119.375,140.563 c0,1.188-0.973,2.16-2.16,2.16H90.798c-1.188,0-2.16-0.974-2.16-2.16v-16.312c0-1.188,0.972-2.16,2.16-2.16h26.417 c1.188,0,2.16,0.974,2.16,2.16V140.563z"></path> <g id="art_8_"> <path id="path6016" fill="#FFFFFF" d="M101.107,124.275c0.108-0.104,0.248-0.15,0.408-0.146c0.161,0.004,0.297,0.065,0.403,0.183 l0.084,0.092c0.103,0.11,0.146,0.249,0.142,0.414c-0.006,0.165-0.065,0.299-0.179,0.398l-5.42,4.97 c-0.114,0.104-0.256,0.153-0.418,0.146s-0.295-0.07-0.396-0.181l-0.084-0.091c-0.104-0.117-0.155-0.254-0.147-0.414 c0.006-0.16,0.067-0.292,0.185-0.399L101.107,124.275z"></path> <path id="path6018" fill="#FFFFFF" d="M96.156,123.954c0.939,0,1.701,0.762,1.701,1.701c0,0.938-0.762,1.701-1.701,1.701 c-0.938,0-1.7-0.763-1.7-1.701C94.456,124.715,95.217,123.954,96.156,123.954L96.156,123.954z M101.488,127.259 c0.938,0,1.701,0.764,1.701,1.701c0,0.939-0.763,1.701-1.701,1.701s-1.698-0.761-1.698-1.701 C99.79,128.021,100.551,127.259,101.488,127.259L101.488,127.259z M101.488,128.251c-0.391,0-0.707,0.317-0.707,0.708 c0,0.394,0.316,0.709,0.707,0.709c0.394,0,0.71-0.315,0.71-0.709C102.198,128.568,101.881,128.251,101.488,128.251 L101.488,128.251z M96.156,124.946c-0.391,0-0.708,0.317-0.708,0.708c0,0.392,0.317,0.709,0.708,0.709 c0.392,0,0.71-0.317,0.71-0.709C96.866,125.263,96.547,124.946,96.156,124.946z"></path> </g> </g> <g id="SQRT"> <g id="Red_Button_4_"> </g> <path id="color_9_" fill="#DE1F2A" stroke="#414042" stroke-width="0.25" stroke-miterlimit="10" d="M82.399,140.563 c0,1.188-0.972,2.16-2.16,2.16H53.823c-1.188,0-2.16-0.974-2.16-2.16v-16.312c0-1.188,0.972-2.16,2.16-2.16H80.24 c1.188,0,2.16,0.974,2.16,2.16L82.399,140.563L82.399,140.563z"></path> <path id="art_9_" fill="#FFFFFF" d="M57.679,128.33c-0.144-0.23-0.072-0.537,0.161-0.68c0.232-0.145,0.537-0.071,0.68,0.161 l0.519,0.843l2.29-4.336c0.088-0.168,0.26-0.264,0.438-0.264v-0.003h6.735c0.274,0,0.496,0.225,0.496,0.496 c0,0.274-0.222,0.496-0.496,0.496h-6.438l-2.554,4.837l0,0c-0.04,0.076-0.1,0.144-0.178,0.19c-0.232,0.143-0.537,0.071-0.68-0.161 L57.679,128.33z"></path> </g> <g id="NEGATIVE"> <path id="color_10_" fill="#DE1F2A" stroke="#414042" stroke-width="0.25" stroke-miterlimit="10" d="M45.65,140.563 c0,1.188-0.972,2.16-2.16,2.16H17.073c-1.188,0-2.16-0.974-2.16-2.16v-16.312c0-1.188,0.972-2.16,2.16-2.16H43.49 c1.188,0,2.16,0.974,2.16,2.16V140.563z"></path> <g id="art_10_"> <path id="path6177" fill="#FFFFFF" d="M27.266,126.432c0.15,0,0.284,0.057,0.4,0.169c0.116,0.11,0.175,0.249,0.175,0.404v0.125 c0,0.15-0.059,0.284-0.175,0.4c-0.116,0.116-0.25,0.175-0.4,0.175h-2.331v2.33c0,0.157-0.059,0.293-0.175,0.406 c-0.116,0.112-0.25,0.169-0.4,0.169h-0.125c-0.158,0-0.293-0.057-0.406-0.169c-0.113-0.113-0.169-0.248-0.169-0.406v-2.33h-2.33 c-0.157,0-0.293-0.059-0.406-0.175c-0.113-0.116-0.17-0.25-0.17-0.4v-0.125c0-0.156,0.057-0.293,0.17-0.404 c0.112-0.113,0.248-0.169,0.406-0.169h2.33v-2.33c0-0.15,0.057-0.285,0.169-0.401c0.113-0.116,0.25-0.175,0.406-0.175h0.125 c0.149,0,0.284,0.059,0.4,0.175c0.117,0.117,0.175,0.251,0.175,0.401v2.33H27.266z"></path> <path id="path6179" fill="#FFFFFF" d="M37.256,127.747c0.151,0,0.285,0.059,0.401,0.169c0.116,0.113,0.175,0.249,0.175,0.407 v0.124c0,0.15-0.059,0.284-0.175,0.4c-0.116,0.114-0.251,0.175-0.401,0.175c-4.637,0-1.302,0-5.936,0 c-0.157,0-0.293-0.061-0.406-0.175c-0.112-0.116-0.169-0.25-0.169-0.4v-0.124c0-0.158,0.057-0.293,0.169-0.407 c0.113-0.113,0.249-0.169,0.406-0.169C35.946,127.747,32.627,127.747,37.256,127.747z"></path> <path id="path6181" fill="#FFFFFF" d="M30.285,124.407c0.054-0.104,0.142-0.176,0.261-0.216c0.12-0.04,0.235-0.031,0.343,0.023 l0.086,0.044c0.104,0.056,0.175,0.145,0.213,0.267s0.03,0.234-0.023,0.339l-2.859,5.492c-0.056,0.106-0.146,0.182-0.267,0.218 c-0.12,0.036-0.233,0.027-0.337-0.027l-0.086-0.044c-0.109-0.057-0.182-0.144-0.219-0.263c-0.038-0.119-0.028-0.232,0.029-0.341 L30.285,124.407z"></path> </g> </g> <g id="ONCLEAR"> <path id="color_11_" fill="#DE1F2A" stroke="#414042" stroke-width="0.25" stroke-miterlimit="10" d="M45.65,289.466 c0,1.188-0.972,2.16-2.16,2.16H17.073c-1.188,0-2.16-0.973-2.16-2.16v-16.311c0-1.188,0.972-2.16,2.16-2.16H43.49 c1.188,0,2.16,0.973,2.16,2.16V289.466z"></path> <g id="art_11_"> <path id="path6261" fill="#FFFFFF" d="M24.24,275.927c0,0.49-0.09,0.938-0.272,1.332c-0.182,0.397-0.425,0.738-0.732,1.023 c-0.307,0.285-0.661,0.506-1.064,0.66c-0.403,0.154-0.828,0.229-1.276,0.229s-0.874-0.075-1.276-0.229 c-0.402-0.154-0.757-0.373-1.064-0.655c-0.307-0.283-0.551-0.624-0.732-1.022c-0.181-0.399-0.272-0.848-0.272-1.336 c0-0.49,0.091-0.938,0.272-1.338c0.181-0.398,0.425-0.738,0.732-1.021c0.307-0.282,0.662-0.502,1.064-0.655 c0.403-0.155,0.828-0.229,1.276-0.229s0.873,0.074,1.276,0.229c0.403,0.153,0.757,0.373,1.064,0.655 c0.307,0.283,0.55,0.623,0.732,1.021C24.149,274.992,24.24,275.437,24.24,275.927L24.24,275.927z M23.335,275.927 c0-0.318-0.061-0.621-0.184-0.906s-0.292-0.533-0.508-0.748c-0.216-0.213-0.473-0.381-0.772-0.508 c-0.299-0.125-0.624-0.188-0.976-0.188s-0.678,0.062-0.976,0.188c-0.299,0.127-0.556,0.295-0.772,0.508 c-0.216,0.215-0.385,0.463-0.508,0.748s-0.184,0.588-0.184,0.906c0,0.32,0.062,0.623,0.184,0.908 c0.123,0.285,0.292,0.534,0.508,0.748c0.216,0.213,0.474,0.382,0.772,0.508c0.298,0.125,0.624,0.188,0.976,0.188 s0.677-0.062,0.976-0.188c0.299-0.126,0.556-0.295,0.772-0.508c0.216-0.214,0.386-0.463,0.508-0.748 S23.335,276.249,23.335,275.927L23.335,275.927z M30.959,278.681c0,0.12-0.045,0.228-0.136,0.313 c-0.091,0.088-0.197,0.132-0.32,0.132h-0.152c-0.149,0-0.267-0.057-0.352-0.168l-3.648-4.646h-0.016v4.406 c0,0.106-0.04,0.201-0.12,0.284c-0.08,0.082-0.176,0.124-0.288,0.124h-0.08c-0.106,0-0.201-0.042-0.284-0.124 c-0.083-0.083-0.124-0.178-0.124-0.284v-5.445c0-0.123,0.045-0.229,0.136-0.319c0.091-0.091,0.197-0.138,0.32-0.138h0.224 c0.064,0,0.128,0.018,0.192,0.049s0.118,0.074,0.16,0.128l3.568,4.561h0.024v-4.336c0-0.11,0.042-0.208,0.125-0.286 c0.083-0.08,0.177-0.119,0.284-0.119h0.08c0.112,0,0.208,0.039,0.288,0.119c0.08,0.078,0.12,0.176,0.12,0.286L30.959,278.681 L30.959,278.681z M35.592,273.176c0,0.064-0.016,0.12-0.048,0.168l-2.904,5.466c-0.037,0.073-0.092,0.135-0.164,0.176 c-0.072,0.043-0.151,0.062-0.236,0.062c-0.123,0-0.22-0.029-0.292-0.093c-0.072-0.062-0.108-0.151-0.108-0.272 c0-0.057,0.016-0.109,0.048-0.17l2.904-5.455c0.042-0.074,0.103-0.137,0.18-0.182c0.078-0.046,0.162-0.066,0.252-0.066 C35.469,272.808,35.592,272.931,35.592,273.176L35.592,273.176z M42.36,277.896c0,0.11-0.048,0.223-0.144,0.328 c-0.149,0.158-0.325,0.299-0.528,0.416c-0.202,0.115-0.424,0.217-0.664,0.297c-0.24,0.08-0.495,0.14-0.764,0.18 c-0.269,0.039-0.545,0.061-0.828,0.061c-0.421,0-0.829-0.074-1.224-0.23c-0.395-0.153-0.744-0.371-1.048-0.65 c-0.304-0.277-0.548-0.615-0.732-1.009c-0.184-0.392-0.276-0.827-0.276-1.308c0-0.459,0.084-0.891,0.252-1.289 s0.397-0.748,0.688-1.047c0.291-0.302,0.635-0.533,1.032-0.705c0.397-0.17,0.828-0.256,1.292-0.256 c0.32,0,0.623,0.034,0.908,0.105c0.285,0.072,0.544,0.16,0.776,0.265s0.431,0.212,0.596,0.32c0.165,0.108,0.285,0.198,0.36,0.271 c0.069,0.084,0.104,0.182,0.104,0.285c0,0.123-0.044,0.229-0.132,0.312c-0.088,0.085-0.193,0.128-0.316,0.128 c-0.139,0-0.251-0.052-0.336-0.152c-0.07-0.059-0.167-0.125-0.292-0.198c-0.125-0.074-0.272-0.146-0.44-0.207 c-0.168-0.063-0.356-0.119-0.564-0.164s-0.427-0.068-0.656-0.068c-0.288,0-0.575,0.053-0.86,0.156 c-0.286,0.104-0.54,0.258-0.764,0.459c-0.224,0.203-0.405,0.453-0.544,0.752c-0.139,0.3-0.208,0.644-0.208,1.033 c0,0.274,0.056,0.554,0.168,0.826c0.112,0.273,0.277,0.521,0.496,0.739c0.219,0.22,0.489,0.396,0.812,0.531 c0.323,0.137,0.697,0.204,1.124,0.204c0.224,0,0.438-0.021,0.644-0.063c0.205-0.043,0.395-0.099,0.568-0.168 c0.173-0.067,0.325-0.146,0.456-0.229c0.13-0.082,0.23-0.163,0.3-0.243c0.085-0.079,0.184-0.119,0.296-0.119 c0.106,0,0.192,0.022,0.256,0.067s0.109,0.098,0.136,0.156C42.335,277.745,42.354,277.815,42.36,277.896z"></path> </g> </g> <g id="DECIMAL"> <path id="color_12_" fill="#FFFFFF" stroke="#414042" stroke-width="0.25" stroke-miterlimit="10" d="M119.375,289.466 c0,1.188-0.975,2.16-2.16,2.16H90.798c-1.188,0-2.16-0.973-2.16-2.16v-16.311c0-1.188,0.972-2.16,2.16-2.16h26.417 c1.188,0,2.16,0.973,2.16,2.16V289.466z"></path> <circle id="art_12_" cx="97.75" cy="275.924" r="1.984"></circle> </g> <g id="0"> <path id="color_13_" fill="#FFFFFF" stroke="#414042" stroke-width="0.25" stroke-miterlimit="10" d="M82.399,289.466 c0,1.188-0.973,2.16-2.16,2.16H53.823c-1.188,0-2.16-0.973-2.16-2.16v-16.311c0-1.188,0.972-2.16,2.16-2.16H80.24 c1.188,0,2.16,0.973,2.16,2.16L82.399,289.466L82.399,289.466z"></path> <path id="art_13_" d="M65.025,275.919c0,0.516-0.08,0.986-0.24,1.42c-0.16,0.436-0.395,0.811-0.705,1.125 c-0.31,0.316-0.697,0.564-1.16,0.745c-0.463,0.183-0.998,0.271-1.605,0.271s-1.142-0.09-1.605-0.271s-0.85-0.429-1.16-0.745 c-0.31-0.314-0.545-0.689-0.705-1.125c-0.16-0.434-0.24-0.904-0.24-1.42c0-0.514,0.079-0.984,0.235-1.42 c0.157-0.434,0.392-0.809,0.705-1.125c0.313-0.314,0.7-0.562,1.16-0.74c0.459-0.177,0.997-0.265,1.61-0.265 c0.607,0,1.142,0.088,1.605,0.265c0.463,0.18,0.85,0.426,1.16,0.74c0.31,0.316,0.545,0.691,0.705,1.125 C64.945,274.933,65.025,275.406,65.025,275.919L65.025,275.919z M63.896,275.919c0-0.327-0.048-0.637-0.145-0.932 c-0.097-0.293-0.25-0.551-0.46-0.773c-0.21-0.224-0.479-0.398-0.805-0.527c-0.326-0.131-0.716-0.195-1.17-0.195 c-0.46,0-0.854,0.064-1.18,0.195c-0.327,0.129-0.595,0.307-0.805,0.527c-0.21,0.225-0.363,0.48-0.46,0.773 c-0.097,0.295-0.146,0.604-0.146,0.932c0,0.326,0.042,0.639,0.125,0.932s0.224,0.553,0.42,0.772 c0.197,0.226,0.462,0.399,0.795,0.53c0.333,0.13,0.75,0.195,1.25,0.195s0.915-0.065,1.245-0.195c0.331-0.131,0.594-0.309,0.79-0.53 c0.197-0.224,0.337-0.479,0.42-0.772S63.896,276.246,63.896,275.919z"></path> </g> <g id="9"> <path id="color_14_" fill="#FFFFFF" stroke="#414042" stroke-width="0.25" stroke-miterlimit="10" d="M119.375,199.961 c0,1.188-0.975,2.16-2.16,2.16H90.798c-1.188,0-2.16-0.972-2.16-2.16v-16.312c0-1.188,0.972-2.159,2.16-2.159h26.417 c1.188,0,2.16,0.972,2.16,2.159V199.961z"></path> <path id="art_14_" d="M101,186.558c0,0.514-0.078,0.989-0.232,1.436c-0.158,0.443-0.389,0.826-0.689,1.15 c-0.305,0.32-0.678,0.578-1.119,0.765s-0.951,0.28-1.523,0.28c-0.32,0-0.604-0.02-0.848-0.051c-0.24-0.033-0.461-0.078-0.652-0.137 c-0.193-0.057-0.367-0.122-0.521-0.193c-0.154-0.072-0.297-0.152-0.432-0.24c-0.182-0.112-0.271-0.272-0.271-0.479 c0-0.134,0.024-0.236,0.08-0.312s0.115-0.133,0.188-0.166c0.071-0.039,0.162-0.062,0.271-0.068c0.097,0,0.188,0.025,0.278,0.08 c0.486,0.3,1.104,0.449,1.853,0.449c0.479,0,0.879-0.074,1.199-0.228c0.319-0.149,0.578-0.34,0.774-0.567 c0.194-0.23,0.34-0.484,0.431-0.768c0.09-0.279,0.147-0.55,0.176-0.811c-0.198,0.193-0.424,0.363-0.67,0.511 c-0.215,0.126-0.463,0.241-0.746,0.345c-0.28,0.104-0.588,0.155-0.914,0.155c-0.397,0-0.789-0.039-1.166-0.115 c-0.377-0.075-0.709-0.207-1-0.391c-0.289-0.183-0.521-0.429-0.698-0.734c-0.179-0.306-0.267-0.69-0.267-1.157 c0-0.193,0.054-0.418,0.153-0.678c0.104-0.257,0.272-0.5,0.513-0.729c0.233-0.229,0.545-0.424,0.931-0.58 c0.385-0.156,0.856-0.234,1.426-0.234c0.406,0,0.815,0.061,1.233,0.178c0.416,0.113,0.789,0.312,1.119,0.584 c0.33,0.271,0.603,0.633,0.812,1.073C100.896,185.367,101,185.912,101,186.558L101,186.558z M99.711,185.578 c-0.072-0.253-0.195-0.479-0.371-0.681c-0.078-0.086-0.172-0.17-0.277-0.25s-0.234-0.152-0.387-0.222 c-0.15-0.065-0.318-0.118-0.51-0.157c-0.191-0.041-0.41-0.062-0.654-0.062c-0.273,0-0.525,0.039-0.756,0.115 c-0.229,0.076-0.43,0.171-0.602,0.279c-0.17,0.108-0.301,0.229-0.396,0.358c-0.094,0.13-0.141,0.245-0.141,0.347 c0,0.101,0.016,0.223,0.045,0.363c0.029,0.145,0.107,0.283,0.234,0.42c0.125,0.139,0.316,0.254,0.574,0.352 c0.256,0.098,0.611,0.146,1.064,0.146c0.42,0,0.768-0.052,1.039-0.152c0.273-0.104,0.496-0.222,0.67-0.348 C99.443,185.94,99.598,185.771,99.711,185.578z"></path> </g> <g id="8"> <path id="color_15_" fill="#FFFFFF" stroke="#414042" stroke-width="0.25" stroke-miterlimit="10" d="M82.399,199.961 c0,1.188-0.973,2.16-2.16,2.16H53.823c-1.188,0-2.16-0.972-2.16-2.16v-16.312c0-1.188,0.972-2.159,2.16-2.159H80.24 c1.188,0,2.16,0.972,2.16,2.159L82.399,199.961L82.399,199.961z"></path> <path id="art_15_" d="M64.69,188.138c0,0.34-0.077,0.639-0.23,0.896s-0.375,0.471-0.665,0.641c-0.291,0.17-0.644,0.3-1.061,0.388 c-0.417,0.086-0.888,0.129-1.415,0.129c-0.526,0-0.998-0.047-1.415-0.142c-0.417-0.094-0.77-0.229-1.06-0.407 c-0.29-0.183-0.514-0.401-0.67-0.666c-0.156-0.266-0.235-0.564-0.235-0.904c0-0.254,0.05-0.471,0.15-0.65s0.225-0.331,0.375-0.454 c0.15-0.124,0.307-0.229,0.47-0.317c0.163-0.09,0.312-0.172,0.445-0.245c-0.073-0.054-0.163-0.116-0.27-0.189 c-0.106-0.071-0.21-0.169-0.31-0.284c-0.1-0.115-0.187-0.262-0.26-0.432c-0.073-0.17-0.11-0.381-0.11-0.635 c0-0.354,0.093-0.646,0.28-0.87s0.421-0.406,0.705-0.54c0.283-0.133,0.595-0.227,0.935-0.28c0.34-0.053,0.663-0.077,0.97-0.077 c0.307,0,0.627,0.036,0.96,0.112c0.333,0.077,0.64,0.192,0.92,0.353c0.28,0.154,0.51,0.351,0.69,0.58 c0.18,0.229,0.27,0.498,0.27,0.806c0,0.239-0.037,0.438-0.11,0.604c-0.073,0.163-0.16,0.302-0.26,0.409 c-0.1,0.11-0.203,0.199-0.31,0.268c-0.106,0.064-0.197,0.127-0.27,0.181c0.127,0.073,0.277,0.153,0.45,0.239 c0.174,0.088,0.335,0.191,0.485,0.318c0.15,0.126,0.278,0.284,0.385,0.477C64.637,187.624,64.69,187.858,64.69,188.138 L64.69,188.138z M63.041,184.988c0-0.206-0.152-0.388-0.455-0.546c-0.303-0.155-0.725-0.234-1.265-0.234 c-0.267,0-0.508,0.021-0.725,0.062c-0.217,0.039-0.403,0.095-0.56,0.164c-0.157,0.068-0.277,0.151-0.36,0.25 c-0.083,0.098-0.125,0.196-0.125,0.306c0,0.28,0.16,0.497,0.48,0.649c0.32,0.151,0.75,0.229,1.29,0.229 c0.267,0,0.507-0.024,0.72-0.074c0.213-0.051,0.394-0.117,0.54-0.2c0.146-0.084,0.26-0.179,0.34-0.283 C63.001,185.203,63.041,185.094,63.041,184.988L63.041,184.988z M63.571,188.088c0-0.146-0.05-0.287-0.15-0.421 c-0.1-0.133-0.247-0.25-0.44-0.35c-0.193-0.103-0.428-0.183-0.705-0.24c-0.276-0.061-0.595-0.09-0.955-0.09 c-0.36,0-0.68,0.029-0.96,0.09c-0.28,0.062-0.517,0.141-0.71,0.24c-0.193,0.099-0.34,0.217-0.44,0.35 c-0.1,0.134-0.15,0.273-0.15,0.421c0,0.173,0.073,0.321,0.22,0.444c0.147,0.124,0.33,0.226,0.55,0.306 c0.22,0.08,0.463,0.14,0.73,0.177c0.267,0.035,0.52,0.055,0.76,0.055c0.24,0,0.492-0.02,0.755-0.055 c0.263-0.037,0.506-0.097,0.73-0.177c0.223-0.08,0.407-0.182,0.55-0.306C63.499,188.41,63.571,188.26,63.571,188.088z"></path> </g> <g id="7"> <path id="color_16_" fill="#FFFFFF" stroke="#414042" stroke-width="0.25" stroke-miterlimit="10" d="M45.65,199.961 c0,1.188-0.973,2.16-2.16,2.16H17.073c-1.188,0-2.16-0.972-2.16-2.16v-16.312c0-1.188,0.972-2.159,2.16-2.159H43.49 c1.188,0,2.16,0.972,2.16,2.159V199.961z"></path> <path id="art_16_" d="M27.004,183.817c0,0.104-0.027,0.203-0.08,0.291l-3.72,5.688c-0.053,0.062-0.115,0.112-0.185,0.159 s-0.152,0.069-0.246,0.069h-0.13c-0.133,0-0.251-0.049-0.354-0.146c-0.104-0.097-0.155-0.222-0.155-0.374 c0-0.094,0.026-0.184,0.08-0.271l3.19-4.869h-4.14c-0.14,0-0.26-0.051-0.36-0.15c-0.1-0.1-0.15-0.22-0.15-0.357v-0.102 c0-0.141,0.052-0.261,0.155-0.357c0.104-0.104,0.222-0.15,0.355-0.15h5.23c0.133,0,0.252,0.05,0.355,0.15 c0.104,0.1,0.155,0.217,0.155,0.35V183.817z"></path> </g> <g id="6"> <path id="color_17_" fill="#FFFFFF" stroke="#414042" stroke-width="0.25" stroke-miterlimit="10" d="M119.375,229.905 c0,1.188-0.975,2.16-2.16,2.16H90.798c-1.188,0-2.16-0.975-2.16-2.16v-16.312c0-1.188,0.972-2.158,2.16-2.158h26.417 c1.188,0,2.16,0.973,2.16,2.158V229.905z"></path> <path id="art_17_" d="M101,217.79c0,0.193-0.051,0.418-0.154,0.675c-0.104,0.259-0.271,0.5-0.51,0.729 c-0.236,0.229-0.547,0.424-0.932,0.58c-0.383,0.156-0.857,0.232-1.424,0.232c-0.414,0-0.828-0.059-1.24-0.175 c-0.414-0.116-0.785-0.312-1.115-0.585c-0.33-0.271-0.6-0.63-0.811-1.07c-0.209-0.438-0.314-0.984-0.314-1.64 c0-0.515,0.078-0.991,0.234-1.437c0.156-0.441,0.387-0.826,0.688-1.148c0.305-0.323,0.68-0.579,1.121-0.766 c0.441-0.188,0.951-0.279,1.523-0.279c0.318,0,0.604,0.017,0.846,0.05c0.244,0.033,0.463,0.078,0.654,0.135 c0.193,0.06,0.365,0.122,0.521,0.195s0.299,0.153,0.432,0.239c0.182,0.113,0.271,0.271,0.271,0.479c0,0.143-0.028,0.247-0.086,0.32 c-0.058,0.072-0.117,0.126-0.187,0.16c-0.08,0.039-0.17,0.062-0.271,0.068c-0.095,0-0.188-0.025-0.279-0.08 c-0.247-0.152-0.521-0.269-0.825-0.342c-0.304-0.07-0.646-0.107-1.022-0.107c-0.479,0-0.881,0.074-1.201,0.226 c-0.319,0.151-0.578,0.34-0.774,0.569c-0.194,0.229-0.34,0.484-0.431,0.766c-0.09,0.281-0.147,0.551-0.174,0.812 c0.199-0.188,0.422-0.354,0.67-0.5c0.213-0.127,0.459-0.244,0.738-0.353c0.28-0.104,0.588-0.16,0.922-0.16 c0.397,0,0.787,0.038,1.164,0.115c0.377,0.076,0.711,0.207,1,0.392c0.291,0.185,0.522,0.43,0.698,0.733 C100.913,216.937,101,217.323,101,217.79L101,217.79z M99.881,217.79c0-0.102-0.016-0.223-0.045-0.365s-0.107-0.281-0.234-0.42 c-0.127-0.137-0.316-0.253-0.574-0.35c-0.258-0.098-0.611-0.146-1.064-0.146c-0.42,0-0.77,0.057-1.045,0.16 c-0.273,0.105-0.498,0.225-0.664,0.352c-0.201,0.146-0.354,0.312-0.461,0.5c0.062,0.261,0.182,0.488,0.359,0.688 c0.152,0.173,0.375,0.33,0.664,0.472c0.291,0.141,0.684,0.211,1.178,0.211c0.271,0,0.521-0.039,0.754-0.115 c0.229-0.076,0.43-0.17,0.602-0.279c0.17-0.109,0.303-0.229,0.396-0.359C99.834,218.004,99.881,217.89,99.881,217.79z"></path> </g> <g id="5"> <path id="color_18_" fill="#FFFFFF" stroke="#414042" stroke-width="0.25" stroke-miterlimit="10" d="M82.399,229.905 c0,1.188-0.973,2.16-2.16,2.16H53.823c-1.188,0-2.16-0.975-2.16-2.16v-16.312c0-1.188,0.972-2.158,2.16-2.158H80.24 c1.188,0,2.16,0.973,2.16,2.158L82.399,229.905L82.399,229.905z"></path> <path id="art_18_" d="M64.61,217.634c0,0.389-0.078,0.729-0.235,1.018c-0.156,0.291-0.381,0.531-0.675,0.726 s-0.646,0.338-1.06,0.437c-0.414,0.098-0.88,0.146-1.4,0.146c-0.394,0-0.782-0.033-1.165-0.102 c-0.383-0.065-0.729-0.155-1.035-0.271c-0.306-0.112-0.553-0.243-0.74-0.391c-0.187-0.146-0.28-0.3-0.28-0.459 c0-0.087,0.019-0.171,0.055-0.25c0.037-0.081,0.083-0.15,0.14-0.21c0.057-0.062,0.12-0.107,0.19-0.144 c0.07-0.03,0.138-0.05,0.205-0.05s0.13,0.021,0.19,0.062c0.18,0.11,0.348,0.213,0.505,0.3c0.157,0.087,0.325,0.159,0.505,0.216 s0.38,0.1,0.6,0.13c0.22,0.029,0.483,0.045,0.79,0.045c0.247,0,0.503-0.021,0.77-0.06c0.267-0.04,0.51-0.109,0.73-0.206 c0.22-0.097,0.401-0.229,0.545-0.39c0.143-0.164,0.215-0.369,0.215-0.615c0-0.119-0.028-0.246-0.085-0.381s-0.16-0.252-0.31-0.358 c-0.149-0.106-0.352-0.195-0.604-0.267c-0.253-0.068-0.581-0.104-0.98-0.104c-0.26,0-0.493,0.033-0.7,0.102 c-0.207,0.065-0.397,0.143-0.57,0.227c-0.173,0.083-0.332,0.158-0.475,0.229c-0.143,0.069-0.285,0.107-0.425,0.114 c-0.18-0.024-0.337-0.103-0.47-0.226c-0.134-0.123-0.22-0.271-0.26-0.444v-2.92c0-0.153,0.055-0.287,0.165-0.399 c0.11-0.111,0.242-0.171,0.395-0.171h4.59c0.154,0,0.287,0.06,0.4,0.171c0.113,0.112,0.17,0.246,0.17,0.399s-0.057,0.283-0.17,0.39 c-0.114,0.106-0.247,0.16-0.4,0.16h-4.03v1.67c0.08,0,0.185-0.021,0.315-0.068c0.13-0.047,0.271-0.097,0.425-0.146 c0.154-0.05,0.32-0.097,0.5-0.142c0.18-0.043,0.36-0.063,0.54-0.063c0.387,0,0.767,0.036,1.14,0.11 c0.374,0.072,0.708,0.199,1.005,0.38c0.297,0.18,0.535,0.416,0.715,0.71C64.521,216.828,64.61,217.194,64.61,217.634z"></path> </g> <g id="4"> <path id="color_19_" fill="#FFFFFF" stroke="#414042" stroke-width="0.25" stroke-miterlimit="10" d="M45.65,229.905 c0,1.188-0.973,2.16-2.16,2.16H17.073c-1.188,0-2.16-0.975-2.16-2.16v-16.312c0-1.188,0.972-2.158,2.16-2.158H43.49 c1.188,0,2.16,0.973,2.16,2.158V229.905z"></path> <path id="art_19_" d="M28.484,217.619c0,0.153-0.055,0.284-0.165,0.396c-0.11,0.108-0.242,0.166-0.395,0.166h-1.02v1.157 c0,0.136-0.05,0.252-0.15,0.354c-0.1,0.104-0.22,0.154-0.36,0.154h-0.1c-0.133,0-0.251-0.054-0.355-0.154 c-0.103-0.104-0.155-0.223-0.155-0.354v-1.157h-4.3c-0.067,0-0.142-0.021-0.225-0.062s-0.163-0.102-0.24-0.182 s-0.14-0.179-0.19-0.289c-0.05-0.113-0.075-0.244-0.075-0.393c0-0.087,0.021-0.167,0.06-0.238c0.04-0.072,0.09-0.139,0.15-0.189 l4.41-3.63c0.04-0.04,0.097-0.071,0.17-0.095c0.073-0.024,0.137-0.035,0.19-0.035h0.61c0.153,0,0.285,0.057,0.395,0.17 c0.11,0.113,0.165,0.246,0.165,0.398v3.422h1.02c0.153,0,0.285,0.057,0.395,0.17c0.11,0.11,0.165,0.246,0.165,0.397V217.619 L28.484,217.619z M25.784,214.289l-3.34,2.771h3.34V214.289z"></path> </g> <g id="3"> <path id="color_20_" fill="#FFFFFF" stroke="#414042" stroke-width="0.25" stroke-miterlimit="10" d="M119.375,259.687 c0,1.188-0.975,2.16-2.16,2.16H90.798c-1.188,0-2.16-0.975-2.16-2.16v-16.312c0-1.188,0.972-2.16,2.16-2.16h26.417 c1.188,0,2.16,0.975,2.16,2.16V259.687z"></path> <path id="art_20_" d="M101.045,247.765c0,0.278-0.057,0.545-0.17,0.791c-0.111,0.244-0.301,0.461-0.564,0.646 c-0.263,0.184-0.607,0.327-1.039,0.435s-0.961,0.16-1.596,0.16c-0.395,0-0.781-0.031-1.164-0.1 c-0.385-0.067-0.729-0.157-1.035-0.271c-0.307-0.111-0.555-0.24-0.74-0.39c-0.188-0.146-0.277-0.3-0.277-0.46 c0-0.088,0.02-0.17,0.057-0.25c0.035-0.08,0.084-0.15,0.141-0.21c0.057-0.062,0.119-0.107,0.188-0.142 c0.07-0.033,0.141-0.052,0.205-0.052c0.065,0,0.129,0.021,0.188,0.062c0.182,0.113,0.35,0.213,0.508,0.301 c0.154,0.087,0.322,0.158,0.504,0.215c0.18,0.059,0.381,0.104,0.602,0.13c0.221,0.03,0.482,0.045,0.791,0.045 c0.318,0,0.615-0.021,0.895-0.067c0.277-0.047,0.52-0.112,0.727-0.199c0.205-0.088,0.369-0.19,0.488-0.312 c0.121-0.117,0.182-0.253,0.182-0.396c0-0.193-0.076-0.362-0.229-0.506c-0.154-0.146-0.35-0.264-0.58-0.354 c-0.234-0.093-0.488-0.163-0.762-0.21c-0.271-0.047-0.533-0.068-0.779-0.068c-0.141,0-0.26-0.054-0.354-0.154 c-0.099-0.104-0.146-0.231-0.146-0.385c0-0.146,0.049-0.273,0.146-0.383c0.097-0.104,0.215-0.158,0.354-0.158 c0.213,0,0.428-0.02,0.646-0.057c0.217-0.036,0.41-0.09,0.584-0.16c0.174-0.066,0.313-0.158,0.426-0.27 c0.111-0.112,0.164-0.235,0.164-0.375c0-0.24-0.151-0.436-0.459-0.58c-0.31-0.146-0.729-0.221-1.26-0.221 c-0.328,0-0.608,0.021-0.847,0.062c-0.235,0.043-0.438,0.092-0.603,0.146c-0.164,0.053-0.293,0.102-0.385,0.145 c-0.095,0.043-0.158,0.064-0.188,0.064c-0.062,0-0.125-0.019-0.195-0.051c-0.067-0.033-0.133-0.078-0.188-0.137 c-0.057-0.057-0.104-0.123-0.142-0.197c-0.034-0.076-0.055-0.162-0.055-0.258c0-0.07,0.017-0.142,0.045-0.204 c0.028-0.062,0.069-0.11,0.125-0.146c0.213-0.113,0.416-0.205,0.604-0.275c0.188-0.066,0.381-0.125,0.568-0.165 c0.188-0.038,0.389-0.065,0.592-0.085c0.201-0.017,0.426-0.021,0.666-0.021c0.426,0,0.812,0.048,1.156,0.145 c0.35,0.1,0.646,0.23,0.896,0.4c0.252,0.17,0.442,0.367,0.58,0.595c0.138,0.229,0.205,0.476,0.205,0.74 c0,0.239-0.035,0.437-0.108,0.59c-0.074,0.153-0.16,0.28-0.261,0.385c-0.103,0.104-0.203,0.188-0.312,0.257 c-0.104,0.065-0.195,0.135-0.27,0.198c0.094,0.056,0.225,0.12,0.391,0.2s0.33,0.188,0.49,0.32c0.16,0.132,0.299,0.3,0.42,0.5 C100.984,247.226,101.045,247.472,101.045,247.765z"></path> </g> <g id="2"> <path id="color_21_" fill="#FFFFFF" stroke="#414042" stroke-width="0.25" stroke-miterlimit="10" d="M82.399,259.687 c0,1.188-0.973,2.16-2.16,2.16H53.823c-1.188,0-2.16-0.975-2.16-2.16v-16.312c0-1.188,0.972-2.16,2.16-2.16H80.24 c1.188,0,2.16,0.975,2.16,2.16L82.399,259.687L82.399,259.687z"></path> <path id="art_21_" d="M64.431,249.146c0,0.16-0.057,0.295-0.17,0.402c-0.113,0.11-0.244,0.165-0.39,0.165h-5.11 c-0.153,0-0.285-0.053-0.395-0.157c-0.11-0.106-0.165-0.236-0.165-0.393s0.007-0.33,0.02-0.53c0.013-0.198,0.072-0.403,0.175-0.618 c0.104-0.215,0.275-0.434,0.515-0.654c0.24-0.226,0.587-0.438,1.04-0.646l2.48-1.13c0.207-0.094,0.38-0.21,0.52-0.35 c0.14-0.144,0.21-0.327,0.21-0.562c0-0.1-0.04-0.195-0.12-0.295c-0.08-0.097-0.195-0.18-0.345-0.25 c-0.15-0.068-0.33-0.127-0.54-0.17c-0.21-0.043-0.441-0.062-0.695-0.062c-0.153,0-0.329,0.014-0.525,0.039 s-0.392,0.062-0.585,0.108s-0.378,0.103-0.555,0.16c-0.177,0.062-0.318,0.12-0.425,0.18c-0.066,0.033-0.147,0.052-0.24,0.052 c-0.133,0-0.258-0.052-0.375-0.148c-0.117-0.102-0.175-0.233-0.175-0.4c0-0.1,0.028-0.191,0.085-0.283s0.131-0.16,0.225-0.217 c0.467-0.238,0.925-0.398,1.375-0.482c0.45-0.084,0.842-0.125,1.175-0.125c0.447,0,0.847,0.058,1.2,0.171 c0.353,0.112,0.652,0.258,0.895,0.435c0.243,0.18,0.428,0.375,0.555,0.598c0.126,0.221,0.19,0.438,0.19,0.647 c0,0.253-0.035,0.481-0.105,0.687c-0.07,0.205-0.18,0.394-0.33,0.563c-0.15,0.174-0.345,0.339-0.585,0.495 c-0.24,0.156-0.534,0.314-0.88,0.477l-2.209,1.01c-0.08,0.041-0.165,0.093-0.255,0.154c-0.09,0.062-0.17,0.131-0.24,0.199 c-0.07,0.07-0.13,0.143-0.18,0.21c-0.05,0.07-0.075,0.128-0.075,0.177h4.45c0.16,0,0.293,0.058,0.4,0.172 c0.107,0.109,0.16,0.246,0.16,0.396L64.431,249.146L64.431,249.146z"></path> </g> <g id="1"> <path id="color_22_" fill="#FFFFFF" stroke="#414042" stroke-width="0.25" stroke-miterlimit="10" d="M45.65,259.687 c0,1.188-0.973,2.16-2.16,2.16H17.073c-1.188,0-2.16-0.975-2.16-2.16v-16.312c0-1.188,0.972-2.16,2.16-2.16H43.49 c1.188,0,2.16,0.975,2.16,2.16V259.687z"></path> <path id="art_22_" d="M25.184,249.121c0,0.133-0.05,0.252-0.15,0.354c-0.1,0.104-0.22,0.152-0.36,0.152h-0.11 c-0.133,0-0.251-0.052-0.354-0.152c-0.104-0.104-0.155-0.225-0.155-0.354v-5.75c0-0.142,0.052-0.261,0.155-0.36 s0.221-0.146,0.354-0.146h0.11c0.14,0,0.26,0.05,0.36,0.146c0.1,0.104,0.15,0.223,0.15,0.36V249.121z"></path> </g> <path id="path9326" fill="#C5CEBD" stroke="#3C3939" stroke-width="0.5011" d="M163.312,51.222c0,0.783-0.638,1.418-1.423,1.418 H23.831c-0.786,0-1.423-0.635-1.423-1.418v-30.47c0-0.783,0.638-1.418,1.423-1.418H161.89c0.785,0,1.423,0.635,1.423,1.418V51.222z"></path> <line id="line9334" fill="none" stroke="#3C3939" stroke-width="0.5014" x1="0.538" y1="53.867" x2="184.393" y2="53.867"></line> <line id="line9336" fill="none" stroke="#3C3939" stroke-width="0.5014" x1="0.538" y1="17.962" x2="184.393" y2="17.962"></line> </svg>